<svg width="512" height="512" viewBox="0 0 512 512" fill="none" xmlns="http://www.w3.org/2000/svg">
<path d="M96 0H416C442.476 0 465.095 9.38095 483.857 28.1429C502.619 46.9048 512 69.5238 512 96V416C512 442.476 502.619 465.095 483.857 483.857C465.095 502.619 442.476 512 416 512H96C69.5238 512 46.9048 502.619 28.1429 483.857C9.38095 465.095 0 442.476 0 416V96C0 69.5238 9.38095 46.9048 28.1429 28.1429C46.9048 9.38095 69.5238 0 96 0ZM358.286 426.571C360.571 426.571 362.571 425.381 364.286 423C366 420.619 367.238 418.238 368 415.857C368.762 413.476 369.81 409.905 371.143 405.143L448 106.857C449.333 101.714 448.476 96.8571 445.429 92.2857C442.381 87.7143 438.952 85.4286 435.143 85.4286H384C381.714 85.4286 379.714 86.6191 378 89C376.286 91.381 375.048 93.7619 374.286 96.1429C373.524 98.5238 372.476 102.095 371.143 106.857L332.857 255.714L294.571 106.857C293.429 102.286 292.381 98.7143 291.429 96.1429C290.476 93.5714 289.143 91.1429 287.429 88.8571C285.714 86.5714 283.81 85.4286 281.714 85.4286H230.286C227.238 85.4286 224.81 87.2857 223 91C221.19 94.7143 219.333 100 217.429 106.857L179.143 255.714L140.857 106.857C139.524 102.095 138.476 98.5238 137.714 96.1429C136.952 93.7619 135.714 91.381 134 89C132.286 86.6191 130.286 85.4286 128 85.4286H76.8571C73.0476 85.4286 69.6191 87.7143 66.5714 92.2857C63.5238 96.8571 62.6667 101.714 64 106.857L140.857 405.143C142.19 409.905 143.238 413.476 144 415.857C144.762 418.238 146 420.619 147.714 423C149.429 425.381 151.429 426.571 153.714 426.571H204.571C209.714 426.571 214 419.429 217.429 405.143L256 255.714L294.571 405.143C298 419.429 302.286 426.571 307.429 426.571H358.286Z" fill="black"/>
</svg>
